HIERARCHY
ROOT RootJoint
{
    OFFSET   0.000000   0.000000   0.000000
    CHANNELS 6 Xposition Yposition Zposition Xrotation Yrotation Zrotation
    JOINT pelvis_lowerback
    {
        OFFSET   0.000000   0.093605   0.000000
        CHANNELS 3 Xrotation Yrotation Zrotation
        JOINT lowerback_torso
        {
            OFFSET   0.000000   0.100000   0.000000
            CHANNELS 3 Xrotation Yrotation Zrotation
            JOINT torso_head
            {
                OFFSET   0.000000   0.282350   0.000000
                CHANNELS 3 Xrotation Yrotation Zrotation
                End Site
                {
                    OFFSET   0.000000   0.192650   0.000000
                }
            }
            JOINT rTorso_Clavicle
            {
                OFFSET  -0.001000   0.157500   0.000000
                CHANNELS 3 Xrotation Yrotation Zrotation
                JOINT rShoulder
                {
                    OFFSET  -0.117647   0.000000   0.000000
                    CHANNELS 3 Xrotation Yrotation Zrotation
                    JOINT rElbow
                    {
                        OFFSET  -0.245000   0.000000   0.000000
                        CHANNELS 3 Xrotation Yrotation Zrotation
                        JOINT rWrist
                        {
                            OFFSET  -0.240000   0.000000   0.000000
                            CHANNELS 3 Xrotation Yrotation Zrotation
                            End Site
                            {
                                OFFSET  -0.116353  -0.002500   0.000000
                            }
                        }
                    }
                }
            }
            JOINT lTorso_Clavicle
            {
                OFFSET   0.001000   0.157500   0.000000
                CHANNELS 3 Xrotation Yrotation Zrotation
                JOINT lShoulder
                {
                    OFFSET   0.117647   0.000000   0.000000
                    CHANNELS 3 Xrotation Yrotation Zrotation
                    JOINT lElbow
                    {
                        OFFSET   0.245000   0.000000   0.000000
                        CHANNELS 3 Xrotation Yrotation Zrotation
                        JOINT lWrist
                        {
                            OFFSET   0.240000   0.000000   0.000000
                            CHANNELS 3 Xrotation Yrotation Zrotation
                            End Site
                            {
                                OFFSET   0.116353  -0.002500   0.000000
                            }
                        }
                    }
                }
            }
        }
    }
    JOINT rHip
    {
        OFFSET  -0.100000  -0.051395   0.000000
        CHANNELS 3 Xrotation Yrotation Zrotation
        JOINT rKnee
        {
            OFFSET   0.000000  -0.410000   0.000000
            CHANNELS 3 Xrotation Yrotation Zrotation
            JOINT rAnkle
            {
                OFFSET   0.000000  -0.390000   0.000000
                CHANNELS 3 Xrotation Yrotation Zrotation
                JOINT rToeJoint
                {
                    OFFSET   0.000000  -0.050000   0.130000
                    CHANNELS 3 Xrotation Yrotation Zrotation
                    End Site
                    {
                        OFFSET  -0.010000   0.002000   0.060000
                    }
                }
            }
        }
    }
    JOINT lHip
    {
        OFFSET   0.100000  -0.051395   0.000000
        CHANNELS 3 Xrotation Yrotation Zrotation
        JOINT lKnee
        {
            OFFSET   0.000000  -0.410000   0.000000
            CHANNELS 3 Xrotation Yrotation Zrotation
            JOINT lAnkle
            {
                OFFSET   0.000000  -0.390000   0.000000
                CHANNELS 3 Xrotation Yrotation Zrotation
                JOINT lToeJoint
                {
                    OFFSET   0.000000  -0.050000   0.130000
                    CHANNELS 3 Xrotation Yrotation Zrotation
                    End Site
                    {
                        OFFSET   0.010000   0.002000   0.060000
                    }
                }
            }
        }
    }
}
MOTION
Frames: 15
Frame Time:   0.008333
 -2.479718   0.731211   3.858554  -4.106183 -57.791734 -19.471828  34.457384  -2.954201  -4.817949   4.525831  -1.352961   1.523037  -7.600145   2.816989  -1.057552   0.247316   9.934460   8.410887   1.070489  10.647863  28.648177   0.000513  53.078356  -0.000497   6.600943   2.816379  -4.870560   1.555694  -9.145447  -4.236175   4.364511   4.343941 -20.403955   0.000211 -42.065312  -0.000099   2.792315  -6.105750   8.803962 -46.940188  -3.199266  15.283502  68.696881  -0.001071   0.001586 -21.316769   6.551276  -0.675689   0.149561  -0.000085  -0.000236 -22.610978 -12.221633  38.679161  82.506266  -0.002218   0.001594 -27.121845  12.991319   6.246808 -24.514432   0.000329   0.000731
 -2.479855   0.731183   3.857676  -4.271642 -57.717390 -19.692388  34.469812  -2.888464  -4.772757   4.689626  -1.314538   1.520109  -7.607752   2.842025  -1.121746   0.319864  10.175257   8.393865   1.137556  10.687402  28.300690   0.000674  53.257717  -0.001403   6.665055   2.649249  -4.979901   1.582459  -9.238074  -4.215536   4.493273   4.395545 -20.198088   0.000130 -42.378715   0.000600   2.811970  -6.007040   8.758223 -46.848460  -3.238572  15.423902  68.653363  -0.000860   0.001220 -21.260092   6.431881  -0.701216   0.144548  -0.000068  -0.000189 -22.443519 -12.395841  38.768101  82.471375  -0.001741   0.001273 -26.982174  13.031007   6.149566 -24.746367   0.000284   0.000625
 -2.479853   0.731589   3.856888  -4.379681 -57.636119 -19.847167  34.457860  -2.818271  -4.719058   4.846530  -1.270468   1.516344  -7.605192   2.865657  -1.182463   0.383259  10.427087   8.366679   1.198415  10.750221  27.978142   0.000892  53.442549  -0.002218   6.741704   2.578968  -5.015256   1.606653  -9.344719  -4.196153   4.613720   4.421773 -20.012064   0.000078 -42.691477   0.001112   2.855698  -6.029372   8.660954 -46.731942  -3.257513  15.535090  68.507855  -0.000706   0.000822 -21.163181   6.315593  -0.742960   0.145914  -0.000054  -0.000151 -22.296493 -12.557021  38.812601  82.367558  -0.001305   0.001033 -26.840458  13.057981   6.055299 -24.786697   0.000219   0.000510
 -2.479756   0.732291   3.856202  -4.445998 -57.548951 -19.950998  34.427179  -2.744489  -4.657743   4.982867  -1.223515   1.515346  -7.600674   2.887977  -1.238546   0.435774  10.675915   8.336210   1.250649  10.821269  27.676172   0.001054  53.622067  -0.002798   6.820081   2.561133  -5.028680   1.627558  -9.453633  -4.180212   4.725030   4.437264 -19.841910  -0.000025 -42.989608   0.001369   2.905541  -6.100822   8.547303 -46.599329  -3.257997  15.621025  68.296008  -0.000603   0.000442 -21.044244   6.200813  -0.797128   0.152655  -0.000041  -0.000121 -22.177828 -12.703053  38.823678  82.228773  -0.000952   0.000859 -26.695982  13.072952   5.964022 -24.651883   0.000236   0.000377
 -2.479599   0.733192   3.855627  -4.488193 -57.455883 -20.021405  34.379699  -2.667622  -4.589253   5.098463  -1.173860   1.518734  -7.596190   2.909009  -1.289944   0.480168  10.915621   8.302689   1.296182  10.894385  27.392137   0.001137  53.793599  -0.003147   6.897638   2.570837  -5.038046   1.647004  -9.557912  -4.165657   4.828863   4.448681 -19.684847  -0.000194 -43.270590   0.001408   2.956344  -6.190582   8.429836 -46.452348  -3.243004  15.685569  68.042062  -0.000543   0.000106 -20.915068   6.087371  -0.858306   0.163289  -0.000029  -0.000097 -22.082545 -12.833522  38.809981  82.072577  -0.000689   0.000730 -26.549757  13.077924   5.876044 -24.383147   0.000355   0.000254
 -2.479404   0.734222   3.855162  -4.517976 -57.357030 -20.070785  34.316742  -2.588093  -4.514115   5.194492  -1.121537   1.527445  -7.592413   2.928803  -1.336868   0.518631  11.143189   8.266454   1.336608  10.966344  27.124462   0.001145  53.956119  -0.003299   6.973373   2.595668  -5.048584   1.666053  -9.653849  -4.150668   4.926309   4.459645 -19.538626  -0.000424 -43.533878   0.001281   3.006120  -6.285319   8.314128 -46.292710  -3.215617  15.731821  67.762736  -0.000515  -0.000178 -20.783220   5.975455  -0.922725   0.176715  -0.000016  -0.000077 -22.005431 -12.949010  38.777866  81.909194  -0.000504   0.000630 -26.403491  13.075013   5.791720 -24.019153   0.000552   0.000160
 -2.479181   0.735331   3.854804  -4.542807 -57.252747 -20.107604  34.239696  -2.506331  -4.432982   5.272255  -1.066669   1.541979  -7.589684   2.947420  -1.379611   0.552632  11.357407   8.228145   1.373009  11.035496  26.872121   0.001089  54.109342  -0.003294   7.046816   2.628951  -5.061827   1.685180  -9.739765  -4.133977   5.018022   4.472071 -19.401476  -0.000695 -43.779725   0.001038   3.053975  -6.378462   8.203479 -46.122397  -3.178539  15.762356  67.469668  -0.000511  -0.000407 -20.653467   5.865280  -0.987884   0.192155  -0.000004  -0.000062 -21.942356 -13.050523  38.732079  81.744930  -0.000384   0.000548 -26.258866  13.066008   5.711292 -23.592190   0.000793   0.000105
 -2.478942   0.736773   3.854602  -4.679205 -57.097663 -20.155744  34.159746  -2.415097  -4.394088   5.443073  -1.003950   1.549931  -7.555877   2.937473  -1.390258   0.668949  11.612420   8.084129   1.609826  11.193782  26.587684   0.003266  54.567935  -0.007196   7.106476   2.438150  -5.197945   1.728071  -9.856271  -4.067793   5.300458   4.370658 -19.297427  -0.000393 -44.306889   0.002323   3.091257  -6.272138   8.223481 -45.847064  -3.076845  15.713013  67.113554  -0.000572  -0.000650 -20.366911   5.700374  -1.056695  -0.534775  -0.000450   0.000249 -21.757050 -13.113126  38.591696  81.447007  -0.000241   0.000580 -25.953007  13.021061   5.524248 -23.940318   0.000029   0.000201
 -2.478623   0.738492   3.854443  -4.777703 -56.922843 -20.162013  34.061470  -2.314919  -4.335477   5.599157  -0.936859   1.560961  -7.516647   2.928489  -1.396782   0.773921  11.877713   7.937126   1.829844  11.370465  26.323344   0.005075  55.020820  -0.010285   7.182218   2.389749  -5.259473   1.765364  -9.991199  -4.014283   5.563492   4.247766 -19.210508  -0.000223 -44.822701   0.003068   3.150841  -6.300024   8.197060 -45.556364  -2.953035  15.645646  66.723555  -0.000702  -0.000927 -20.241771   5.561899  -1.070532  -0.027023  -0.000158   0.000192 -21.598528 -13.163248  38.432973  81.103722  -0.000212   0.000607 -25.655415  12.954528   5.342345 -24.120140  -0.000330   0.000196
 -2.478249   0.740368   3.854338  -4.848804 -56.735440 -20.134006  33.947232  -2.210684  -4.264544   5.730260  -0.866270   1.576700  -7.479411   2.920562  -1.400985   0.863888  12.143432   7.796113   2.029797  11.550760  26.075302   0.006296  55.451976  -0.012326   7.261177   2.407608  -5.299640   1.797819 -10.130020  -3.970943   5.807751   4.121060 -19.134694  -0.000277 -45.311579   0.003264   3.216272  -6.384653   8.150432 -45.256288  -2.820690  15.558868  66.296476  -0.000851  -0.001201 -20.100368   5.418337  -1.097562   0.036891  -0.000091   0.000153 -21.470658 -13.202036  38.255973  80.745089  -0.000279   0.000612 -25.366655  12.878630   5.168849 -24.135948  -0.000297   0.000158
 -2.477762   0.742194   3.854397  -4.917289 -56.530658 -20.134286  33.821519  -2.100265  -4.132446   5.838519  -0.789697   1.609315  -7.444168   2.913966  -1.403710   0.939377  12.400781   7.645538   2.211427  11.725878  25.831424   0.006854  55.858199  -0.013318   7.340002   2.455223  -5.339275   1.829531 -10.262492  -3.942263   6.037951   3.998103 -19.075049  -0.000575 -45.772920   0.003071   3.282800  -6.497080   8.085984 -44.947036  -2.708346  15.473163  65.864816  -0.001027  -0.001419 -19.961319   5.271807  -1.124452   0.094449  -0.000034   0.000121 -21.408130 -13.165292  37.978989  80.234138  -0.001013   0.001042 -24.934911  12.670946   4.964758 -22.253975   0.007525  -0.001030
 -2.477326   0.744054   3.854421  -4.979191 -56.336159 -20.109656  33.673096  -1.984434  -4.038523   5.920712  -0.706206   1.648837  -7.413527   2.907523  -1.400654   1.008181  12.649865   7.517067   2.378826  11.897577  25.611313   0.007032  56.241757  -0.013659   7.417419   2.523285  -5.379181   1.859735 -10.382260  -3.903052   6.252206   3.886214 -19.010014  -0.001072 -46.202176   0.002512   3.347273  -6.607779   8.027295 -44.643861  -2.579004  15.383896  65.431459  -0.001153  -0.001611 -19.817431   5.123253  -1.160333   0.145096   0.000009   0.000096 -21.295529 -13.200630  37.802292  79.926622  -0.000969   0.000938 -24.720886  12.689912   4.840790 -22.706790   0.005336  -0.001076
 -2.476875   0.745942   3.854475  -5.040659 -56.132744 -20.063494  33.520130  -1.870896  -3.950901   5.982878  -0.622924   1.685194  -7.388010   2.901534  -1.399213   1.070116  12.888354   7.398144   2.533377  12.062255  25.405825   0.006934  56.601666  -0.013539   7.492614   2.601203  -5.419657   1.887145 -10.493895  -3.862007   6.451053   3.782406 -18.945294  -0.001635 -46.602792   0.001784   3.408754  -6.713049   7.981522 -44.336425  -2.442524  15.269316  64.999151  -0.001253  -0.001751 -19.674239   4.978183  -1.199545   0.190606   0.000042   0.000076 -21.209340 -13.225259  37.620649  79.627805  -0.000978   0.000780 -24.500471  12.623971   4.701596 -22.889294   0.003932  -0.000906
 -2.476256   0.748504   3.854528  -5.087351 -55.846399 -19.923888  33.369119  -1.739344  -3.909040   6.130462  -0.545698   1.730113  -7.352782   2.894725  -1.371455   1.173320  13.117234   7.192544   2.741342  12.208418  25.262526   0.010812  57.407816  -0.019415   7.507144   2.382108  -5.546970   1.912443 -10.629554  -3.775741   6.747723   3.553942 -18.899890  -0.001639 -47.410533   0.002484   3.422828  -6.533323   8.047760 -43.946758  -2.239093  15.057828  64.425637  -0.001631  -0.002197 -19.460187   4.786910  -1.157511   0.217532   0.000040   0.000061 -21.092637 -13.221532  37.337364  79.129933  -0.001288   0.000649 -24.179914  12.476727   4.516203 -23.275519   0.002092  -0.000761
 -2.475503   0.751469   3.854621  -5.069606 -55.516325 -19.703873  33.199026  -1.608675  -3.849470   6.266740  -0.476975   1.771030  -7.306365   2.890703  -1.344147   1.264469  13.351224   6.988142   2.930420  12.374747  25.132113   0.014100  58.194778  -0.024219   7.538769   2.351351  -5.645236   1.927908 -10.793522  -3.704118   7.019017   3.299600 -18.867041  -0.001695 -48.200361   0.002610   3.464619  -6.550891   8.082502 -43.528816  -2.023579  14.798020  63.754806  -0.002123  -0.002794 -19.210180   4.574488  -1.142597   0.249115   0.000050   0.000048 -21.028024 -13.201179  37.009171  78.555023  -0.001901   0.000455 -23.861551  12.301700   4.332526 -23.338392   0.001477  -0.000637
